<svg width="366" height="86" viewBox="0 0 366 86" fill="none" xmlns="http://www.w3.org/2000/svg">
<path d="M79.5425 44.68V37L88.2465 31.5V44.68H79.5425ZM79.5425 84.04V49.48H88.2465V66.76V84.04H79.5425Z" fill="#EFA90D"/>
<path d="M26.504 84.04L13 37.96L22 43.5L30.792 69.64L38.5 46.5L44.008 49.48L50.5 46.5L57.224 69.64L65.5 44.68L75.016 37.96L61.512 84.04H52.936L44.008 52.936L35.08 84.04H26.504Z" fill="#FDFDFD"/>
<path d="M111.344 85C106.992 85 103.472 84.0187 100.784 82.056C98.1173 80.072 96.496 77.2773 95.92 73.672L104.816 72.328C105.179 73.9493 105.979 75.2187 107.216 76.136C108.475 77.0533 110.064 77.512 111.984 77.512C113.563 77.512 114.779 77.2133 115.632 76.616C116.485 75.9973 116.912 75.144 116.912 74.056C116.912 73.3733 116.741 72.8293 116.4 72.424C116.059 71.9973 115.291 71.5813 114.096 71.176C112.923 70.7707 111.088 70.2373 108.592 69.576C105.776 68.8507 103.525 68.04 101.84 67.144C100.155 66.248 98.9387 65.1813 98.192 63.944C97.4453 62.6853 97.072 61.1707 97.072 59.4C97.072 57.1813 97.6373 55.2613 98.768 53.64C99.8987 51.9973 101.488 50.7387 103.536 49.864C105.605 48.968 108.037 48.52 110.832 48.52C113.541 48.52 115.941 48.936 118.032 49.768C120.123 50.6 121.808 51.784 123.088 53.32C124.389 54.856 125.189 56.6693 125.488 58.76L116.592 60.36C116.443 59.08 115.888 58.0667 114.928 57.32C113.968 56.5733 112.667 56.136 111.024 56.008C109.424 55.9013 108.133 56.1147 107.152 56.648C106.192 57.1813 105.712 57.9493 105.712 58.952C105.712 59.5493 105.915 60.0507 106.32 60.456C106.747 60.8613 107.611 61.2773 108.912 61.704C110.235 62.1307 112.24 62.6853 114.928 63.368C117.552 64.0507 119.653 64.8507 121.232 65.768C122.832 66.664 123.995 67.752 124.72 69.032C125.445 70.2907 125.808 71.816 125.808 73.608C125.808 77.1493 124.528 79.9333 121.968 81.96C119.408 83.9867 115.867 85 111.344 85Z" fill="#FDFDFD"/>
<path d="M145.704 85.064C142.995 85.064 140.787 84.6053 139.08 83.688C137.373 82.7707 136.04 81.608 135.08 80.2C134.141 78.792 133.469 77.3307 133.064 75.816C132.659 74.28 132.413 72.8827 132.328 71.624C132.243 70.3653 132.2 69.448 132.2 68.872V49.48H141.032V65.8C141.032 66.5893 141.075 67.6027 141.16 68.84C141.245 70.056 141.512 71.2827 141.96 72.52C142.408 73.7573 143.133 74.792 144.136 75.624C145.16 76.456 146.6 76.872 148.456 76.872C149.203 76.872 150.003 76.7547 150.856 76.52C151.709 76.2853 152.509 75.8373 153.256 75.176C154.003 74.4933 154.611 73.5013 155.08 72.2C155.571 70.8773 155.816 69.1493 155.816 67.016L160.808 69.384C160.808 72.1147 160.253 74.6747 159.144 77.064C158.035 79.4533 156.36 81.384 154.12 82.856C151.901 84.328 149.096 85.064 145.704 85.064ZM156.904 84.04V72.584H155.816V49.48H164.584V84.04H156.904Z" fill="#FDFDFD"/>
<path d="M187.544 85C184.365 85 181.581 84.2 179.191 82.6C176.802 81 174.936 78.824 173.592 76.072C172.269 73.32 171.607 70.216 171.607 66.76C171.607 63.24 172.28 60.1147 173.624 57.384C174.989 54.632 176.898 52.4667 179.352 50.888C181.805 49.3093 184.685 48.52 187.992 48.52C191.277 48.52 194.039 49.32 196.279 50.92C198.52 52.52 200.215 54.696 201.367 57.448C202.52 60.2 203.096 63.304 203.096 66.76C203.096 70.216 202.509 73.32 201.335 76.072C200.184 78.824 198.456 81 196.152 82.6C193.848 84.2 190.978 85 187.544 85ZM188.952 77.256C190.893 77.256 192.44 76.8187 193.592 75.944C194.765 75.0693 195.608 73.8427 196.12 72.264C196.632 70.6853 196.887 68.8507 196.887 66.76C196.887 64.6693 196.632 62.8347 196.12 61.256C195.608 59.6773 194.786 58.4507 193.656 57.576C192.546 56.7013 191.085 56.264 189.271 56.264C187.33 56.264 185.73 56.744 184.471 57.704C183.234 58.6427 182.317 59.912 181.719 61.512C181.122 63.0907 180.824 64.84 180.824 66.76C180.824 68.7013 181.111 70.472 181.688 72.072C182.264 73.6507 183.149 74.9093 184.344 75.848C185.538 76.7867 187.074 77.256 188.952 77.256ZM196.887 84.04V60.36H195.799V37.96H204.568V84.04H196.887Z" fill="#FDFDFD"/>
<path d="M223.128 85C220.653 85 218.551 84.5307 216.824 83.592C215.117 82.632 213.815 81.3627 212.919 79.784C212.045 78.184 211.607 76.424 211.607 74.504C211.607 72.904 211.853 71.4427 212.344 70.12C212.834 68.7973 213.624 67.6347 214.712 66.632C215.821 65.608 217.303 64.7547 219.16 64.072C220.439 63.6027 221.965 63.1867 223.736 62.824C225.506 62.4613 227.511 62.12 229.751 61.8C231.992 61.4587 234.455 61.0853 237.143 60.68L234.008 62.408C234.008 60.36 233.517 58.856 232.536 57.896C231.554 56.936 229.911 56.456 227.607 56.456C226.327 56.456 224.994 56.7653 223.607 57.384C222.221 58.0027 221.25 59.1013 220.695 60.68L212.824 58.184C213.698 55.3253 215.341 53 217.751 51.208C220.162 49.416 223.447 48.52 227.607 48.52C230.658 48.52 233.368 48.9893 235.736 49.928C238.104 50.8667 239.895 52.488 241.111 54.792C241.794 56.072 242.199 57.352 242.327 58.632C242.456 59.912 242.52 61.3413 242.52 62.92V84.04H234.904V76.936L235.992 78.408C234.306 80.7333 232.482 82.4187 230.52 83.464C228.578 84.488 226.114 85 223.128 85ZM224.984 78.152C226.584 78.152 227.928 77.8747 229.016 77.32C230.125 76.744 230.999 76.0933 231.639 75.368C232.301 74.6427 232.749 74.0347 232.984 73.544C233.432 72.6053 233.688 71.5173 233.751 70.28C233.837 69.0213 233.88 67.976 233.88 67.144L236.439 67.784C233.858 68.2107 231.768 68.5733 230.167 68.872C228.567 69.1493 227.277 69.4053 226.296 69.64C225.314 69.8747 224.45 70.1307 223.704 70.408C222.85 70.7493 222.157 71.1227 221.624 71.528C221.112 71.912 220.727 72.3387 220.471 72.808C220.237 73.2773 220.12 73.8 220.12 74.376C220.12 75.1653 220.311 75.848 220.695 76.424C221.101 76.9787 221.666 77.4053 222.391 77.704C223.117 78.0027 223.981 78.152 224.984 78.152Z" fill="#FDFDFD"/>
<path d="M274.392 84.04V67.72C274.392 66.9307 274.349 65.928 274.264 64.712C274.179 63.4747 273.912 62.2373 273.464 61C273.016 59.7627 272.28 58.728 271.256 57.896C270.253 57.064 268.824 56.648 266.968 56.648C266.221 56.648 265.421 56.7653 264.568 57C263.715 57.2347 262.915 57.6933 262.168 58.376C261.421 59.0373 260.803 60.0187 260.312 61.32C259.843 62.6213 259.608 64.3493 259.608 66.504L254.616 64.136C254.616 61.4053 255.171 58.8453 256.28 56.456C257.389 54.0667 259.053 52.136 261.272 50.664C263.512 49.192 266.328 48.456 269.72 48.456C272.429 48.456 274.637 48.9147 276.344 49.832C278.051 50.7493 279.373 51.912 280.312 53.32C281.272 54.728 281.955 56.2 282.36 57.736C282.765 59.2507 283.011 60.6373 283.096 61.896C283.181 63.1547 283.224 64.072 283.224 64.648V84.04H274.392ZM250.776 84.04V37.96H258.52V61.64H259.608V84.04H250.776Z" fill="#FDFDFD"/>
<path d="M304.392 85.064C301.682 85.064 299.474 84.6053 297.767 83.688C296.061 82.7707 294.727 81.608 293.767 80.2C292.829 78.792 292.157 77.3307 291.751 75.816C291.346 74.28 291.101 72.8827 291.016 71.624C290.93 70.3653 290.888 69.448 290.888 68.872V49.48H299.72V65.8C299.72 66.5893 299.762 67.6027 299.848 68.84C299.933 70.056 300.199 71.2827 300.647 72.52C301.095 73.7573 301.821 74.792 302.823 75.624C303.847 76.456 305.288 76.872 307.143 76.872C307.89 76.872 308.69 76.7547 309.543 76.52C310.397 76.2853 311.197 75.8373 311.944 75.176C312.69 74.4933 313.298 73.5013 313.767 72.2C314.258 70.8773 314.504 69.1493 314.504 67.016L319.496 69.384C319.496 72.1147 318.941 74.6747 317.832 77.064C316.722 79.4533 315.047 81.384 312.807 82.856C310.589 84.328 307.784 85.064 304.392 85.064ZM315.591 84.04V72.584H314.504V49.48H323.272V84.04H315.591Z" fill="#FDFDFD"/>
<path d="M349.175 85C345.74 85 342.871 84.2 340.567 82.6C338.263 81 336.524 78.824 335.351 76.072C334.199 73.32 333.623 70.216 333.623 66.76C333.623 63.304 334.199 60.2 335.351 57.448C336.503 54.696 338.199 52.52 340.439 50.92C342.679 49.32 345.442 48.52 348.727 48.52C352.034 48.52 354.914 49.3093 357.367 50.888C359.82 52.4667 361.719 54.632 363.063 57.384C364.428 60.1147 365.111 63.24 365.111 66.76C365.111 70.216 364.439 73.32 363.095 76.072C361.772 78.824 359.916 81 357.527 82.6C355.138 84.2 352.354 85 349.175 85ZM332.151 84.04V37.96H340.919V60.36H339.831V84.04H332.151ZM347.767 77.256C349.644 77.256 351.18 76.7867 352.375 75.848C353.57 74.9093 354.455 73.6507 355.031 72.072C355.607 70.472 355.895 68.7013 355.895 66.76C355.895 64.84 355.596 63.0907 354.999 61.512C354.402 59.912 353.474 58.6427 352.215 57.704C350.978 56.744 349.388 56.264 347.447 56.264C345.634 56.264 344.162 56.7013 343.031 57.576C341.922 58.4507 341.111 59.6773 340.599 61.256C340.087 62.8347 339.831 64.6693 339.831 66.76C339.831 68.8507 340.087 70.6853 340.599 72.264C341.111 73.8427 341.943 75.0693 343.095 75.944C344.268 76.8187 345.826 77.256 347.767 77.256Z" fill="#FDFDFD"/>
<path d="M44 6.75L10 28.003L44 48.75L78 28.003L44 6.75Z" stroke="#EFA90D" stroke-width="9"/>
</svg>
